<svg width="33" height="37" viewBox="0 0 33 37" fill="none" xmlns="http://www.w3.org/2000/svg">
<path d="M4.28495 24.2053C3.83137 22.5854 4.43614 20.7711 5.53769 19.6695C7.91356 17.2937 10.2894 19.0216 10.3974 22.1534L10.9158 35.8039L13.4861 36.9487L23.3784 27.0564L20.3329 24.0109L16.7043 27.6827L14.782 29.9938L14.674 29.929L14.7604 22.1966C14.7604 15.501 8.15115 11.2676 2.68663 16.7321C0.721131 18.6976 -0.337214 21.8294 0.483543 24.9397L4.28495 24.2053ZM22.25 22.3962C26.397 23.7786 29.3776 21.4891 30.5872 20.2795C36.5917 14.4478 30.0904 5.00912 23.2652 7.3418C21.386 7.96817 19.1398 9.60969 18.103 12.1152L15.9215 9.93367L22.5308 3.32441L19.5285 0.322162L9.98183 9.86887L18.643 18.53L20.3709 16.7157C20.9973 14.4478 21.4292 13.6703 22.574 12.5255C26.0082 9.26411 30.6952 14.0375 27.3041 17.4285C26.3754 18.3572 24.7555 18.8972 23.0276 18.5084L22.25 22.3962Z" fill="black"/>
</svg>
