<svg width="23" height="24" viewBox="0 0 23 24" fill="none" xmlns="http://www.w3.org/2000/svg">
<path d="M1.78917 23H6.27935L8.72299 5.65018H16.4815L14.0379 23H18.5586L21.6132 1.37382H4.84372L1.78917 23Z" fill="#FFEB83"/>
<path d="M1.78917 23L0.798999 22.8601L0.638002 24H1.78917V23ZM6.27935 23V24H7.14838L7.26958 23.1395L6.27935 23ZM8.72299 5.65018V4.65018H7.85396L7.73276 5.51071L8.72299 5.65018ZM16.4815 5.65018L17.4718 5.78965L17.6322 4.65018H16.4815V5.65018ZM14.0379 23L13.0477 22.8605L12.8872 24H14.0379V23ZM18.5586 23V24H19.4273L19.5488 23.1399L18.5586 23ZM21.6132 1.37382L22.6033 1.51367L22.7643 0.373818H21.6132V1.37382ZM4.84372 1.37382V0.373818H3.97503L3.85354 1.23396L4.84372 1.37382ZM1.78917 24H6.27935V22H1.78917V24ZM7.26958 23.1395L9.71322 5.78965L7.73276 5.51071L5.28913 22.8605L7.26958 23.1395ZM8.72299 6.65018H16.4815V4.65018H8.72299V6.65018ZM15.4913 5.51071L13.0477 22.8605L15.0281 23.1395L17.4718 5.78965L15.4913 5.51071ZM14.0379 24H18.5586V22H14.0379V24ZM19.5488 23.1399L22.6033 1.51367L20.623 1.23396L17.5685 22.8601L19.5488 23.1399ZM21.6132 0.373818H4.84372V2.37382H21.6132V0.373818ZM3.85354 1.23396L0.798999 22.8601L2.77934 23.1399L5.83389 1.51367L3.85354 1.23396Z" fill="black"/>
</svg>
