<svg width="32" height="32" viewBox="0 0 32 32" fill="none" xmlns="http://www.w3.org/2000/svg">
<path d="M26.1447 10.4939L31.9116 10.4723L31.9332 6.2605L26.1015 6.2605L26.1231 0.579985L21.8897 0.49359L21.9113 6.30369L16.2956 6.30369L16.2956 10.5371L21.8897 10.5587L21.8897 16.1744L26.1447 16.196L26.1447 10.4939ZM19.9605 21.6458C20.4141 23.2657 19.8093 25.0801 18.7078 26.1816C16.3319 28.5575 13.956 26.8296 13.848 23.6977L13.3297 10.0472L10.7594 8.90248L0.867103 18.7948L3.91255 21.8402L7.54116 18.1684L9.46346 15.8573L9.57146 15.9221L9.48506 23.6545C9.48506 30.3502 16.0943 34.5836 21.5588 29.119C23.5243 27.1535 24.5827 24.0217 23.7619 20.9115L19.9605 21.6458Z" fill="black"/>
</svg>
