<svg width="30" height="28" viewBox="0 0 30 28" fill="none" xmlns="http://www.w3.org/2000/svg">
<path d="M14.7549 26.3947L6.60509 6.29699L3.32152 7.62851L0.390433 15.1127L3.88998 16.2646L5.12076 13.8537L10.8486 27.9788L14.7549 26.3947ZM16.0324 21.4599C19.3133 24.3485 22.9504 23.401 24.5355 22.7582C32.3375 19.7263 30.0267 8.50057 22.8319 7.99015C20.8573 7.83501 18.149 8.4718 16.2181 10.3755L15.0587 7.5165L23.7206 4.00404L22.125 0.0694168L9.61351 5.14297L14.2164 16.4939L16.5146 15.4961C17.975 13.6514 18.6757 13.1035 20.176 12.4951C24.6094 10.8292 27.0666 17.0513 22.6225 18.8534C21.4053 19.347 19.703 19.2133 18.2631 18.1821L16.0324 21.4599Z" fill="white"/>
</svg>
