<svg width="28" height="29" viewBox="0 0 28 29" fill="none" xmlns="http://www.w3.org/2000/svg">
<path d="M22.0241 24.4522L1.9877 16.1528L0.631748 19.4264L3.90608 26.7669L7.18267 25.0824L6.32907 22.5136L20.411 28.3466L22.0241 24.4522ZM26.4966 14.4529C27.911 11.0383 27.6265 6.45706 23.4499 4.72705L15.012 1.23197C10.8072 -0.509731 7.36656 2.52852 5.95216 5.94318C4.54945 9.32962 4.82226 13.9391 9.02709 15.6808L17.465 19.1759C21.6416 20.9059 25.0938 17.8394 26.4966 14.4529ZM10.6753 11.7017C7.80565 10.2486 10.3071 4.20942 13.3638 5.21103L21.8017 8.70611C24.6149 10.1359 22.1134 16.175 19.1131 15.1968L10.6753 11.7017Z" fill="white"/>
</svg>
