<svg width="31" height="37" viewBox="0 0 31 37" fill="none" xmlns="http://www.w3.org/2000/svg">
<path d="M15.6395 4.55741C17.3081 4.77071 18.7435 6.03448 19.3289 7.47812C20.5916 10.5919 18.0746 12.1069 15.1481 10.9864L2.37402 6.14612L0.31844 8.0674L5.57565 21.0318L9.56689 19.4134L7.59869 14.641L6.21903 11.9703L6.32078 11.8961L13.4087 14.9878C19.5754 17.5962 26.049 13.1582 23.145 5.9966C22.1004 3.4207 19.6283 1.22593 16.444 0.770229L15.6395 4.55741ZM9.20401 30.7923C10.5929 34.2174 14.0108 37.2813 18.2002 35.5824L26.6638 32.1503C30.8815 30.44 31.2002 25.861 29.8113 22.4359C28.4338 19.0391 25.0045 15.947 20.7868 17.6573L12.3231 21.0894C8.13372 22.7883 7.82658 27.3955 9.20401 30.7923ZM22.4053 21.6485C25.4693 20.6697 27.9257 26.7274 25.0454 28.1591L16.5817 31.5912C13.5743 32.547 11.1178 26.4894 13.9416 25.0807L22.4053 21.6485Z" fill="white"/>
</svg>
